<svg version="1.2" xmlns="http://www.w3.org/2000/svg" viewBox="0 0 850 150" width="434" height="120">
	<title>TylerCookeLogo</title>
	<defs>
		<linearGradient id="g1" x1="13.9" y1="75.3" x2="92.9" y2="154.2" gradientUnits="userSpaceOnUse">
			<stop offset="0" stop-color="#3d8ecd"/>
			<stop offset=".6" stop-color="#2a57ae"/>
			<stop offset="1" stop-color="#2a46a5"/>
		</linearGradient>
		<linearGradient id="g2" x1="67.2" y1="75.3" x2="120.9" y2="21.6" gradientUnits="userSpaceOnUse">
			<stop offset="0" stop-color="#1f59af"/>
			<stop offset=".3" stop-color="#2970bc"/>
			<stop offset="1" stop-color="#61d2e0"/>
		</linearGradient>
		<linearGradient id="g3" x1="722.9" y1="46" x2="801.9" y2="125" gradientUnits="userSpaceOnUse">
			<stop offset="0" stop-color="#3d8ecd"/>
			<stop offset=".6" stop-color="#2a57ae"/>
			<stop offset="1" stop-color="#2a46a5"/>
		</linearGradient>
		<linearGradient id="g4" x1="751" y1="128" x2="804.7" y2="74.4" gradientUnits="userSpaceOnUse">
			<stop offset="0" stop-color="#1f5ab0"/>
			<stop offset=".3" stop-color="#2a70bc"/>
			<stop offset="1" stop-color="#61d3e1"/>
		</linearGradient>
		<linearGradient id="g5" x1="655.8" y1="100.1" x2="763.4" y2="-7.5" gradientUnits="userSpaceOnUse">
			<stop offset="0" stop-color="#1f59af"/>
			<stop offset=".3" stop-color="#2970bc"/>
			<stop offset="1" stop-color="#61d2e0"/>
		</linearGradient>
		<clipPath id="mask">
			<polygon id="maskRect" points="0,0 734,0 655,150 0,150" />
		</clipPath>
	</defs>
	<style>
		.s0 { fill: url(#g1) } 
		.s1 { fill: url(#g2) } 
		.s2 { fill: url(#g3) } 
		.s3 { fill: url(#g4) } 
		.s4 { fill: url(#g5) } 
		.s5 { fill: #808080 } 
		.s6 { fill: #666666 } 
		.animated #maskRect { transform: translateX(-63%); transition: transform 1.4s cubic-bezier(.7, -.3, 0, 1) }
		.animated:hover #maskRect { transform: translateX(0) }
		.animated #RChev { transform: translateX(-50.5%); transition: transform 1.4s cubic-bezier(.7, -.3, 0, 1) }
		.animated:hover #RChev { transform: translateX(0) }
		.animated #C { transform:translateX(-22.6%); transition: transform 0.8s cubic-bezier(0, 0, 0.07, 1) 0.6s; }
		.animated:hover #C { transform: translateX(0); transition: transform 1.1s cubic-bezier(.7, -.6, 0.07, 1); }
	</style>
	<g id="LChev">
		<path id="LChevBot" class="s0" d="m69.1 127.6l-53.8-53.7 25.4-25.4 78.8 79.1z"/>
		<path id="LChevTop" class="s1" d="m40.6 48.6l28.4-28.4h50.4l-53.6 53.7z"/>
	</g>
	<g id="RChev">
		<path id="RChevBot" class="s2" d="m774.8 19.2l53.7 53.8-25.3 25.3-78.9-79.1z"/>
		<path id="RChevTop" class="s3" d="m803.3 98.2l-28.4 28.4h-50.5l53.7-53.6z"/>
		<path id="Slash" class="s4" d="m774.8 19.2l-57.8 107.6-49.8 0.1 57.2-107.7v0.1z"/>
	</g>
	<g id="Text">
		<path id="T" class="s5" aria-label="T"  d="m113.6 51.9h20.5v62.1h18.8v-62.1h20.5v-15.1h-59.8z"/>
		<path id="YLER" clip-path="url(#mask)" class="s5" aria-label="YLER"  d="m193.6 94.3v19.7h14.5v-19.7l20.7-40h-16.3l-11.5 25-11.6-25h-16.5zm38.5-39.9v59.6h33.6v-11.2h-19v-48.4zm74.5 0h-36.5v59.6h36.5v-11.6h-22v-13.1h19.5v-11.2h-19.5v-12.1h22zm38.4 19.4c0 4.7-2.5 7.5-8 7.5h-9v-14.8h9c5.5 0 8 2.9 8 7.3zm-31.5-19.4v59.7h14.5v-22.5h3.5l12.4 22.5h16.4l-13.7-23.6c9.1-2.8 13.2-9.8 13.2-17.3 0-10.4-7.3-18.8-21.9-18.8z"/>
		<path id="C" class="s6" aria-label="C"  d="m364.7 75.3c0 23.1 16.1 39.3 38.9 39.3 18.3 0 32.2-10.3 36.6-27h-20.7c-3.2 6.6-9 9.9-16.2 9.9-11.5 0-19.4-8.6-19.4-22.2 0-13.7 7.9-22.2 19.4-22.2 7.2 0 13 3.3 16.2 9.9h20.7c-4.4-16.8-18.3-27.1-36.6-27.1-22.8 0-38.9 16.3-38.9 39.4z"/>
		<path id="OOKE" clip-path="url(#mask)" class="s6" aria-label="OOKE"  d="m505.4 84c0-17.9-13.5-30.5-30.5-30.5-16.9 0-30.7 12.6-30.7 30.5 0 17.9 13.8 30.6 30.7 30.6 16.9 0 30.5-12.7 30.5-30.6zm-46.3 0c0-10.6 6.1-17.3 15.8-17.3 9.5 0 15.7 6.7 15.7 17.3 0 10.5-6.2 17.3-15.7 17.3-9.7 0-15.8-6.8-15.8-17.3zm110.6 0c0-17.9-13.5-30.5-30.5-30.5-17 0-30.7 12.6-30.7 30.5 0 17.9 13.7 30.6 30.7 30.6 16.9 0 30.5-12.7 30.5-30.6zm-46.4 0c0-10.6 6.2-17.3 15.9-17.3 9.5 0 15.7 6.7 15.7 17.3 0 10.5-6.2 17.3-15.7 17.3-9.7 0-15.9-6.8-15.9-17.3zm86.5 30h17.7l-23.9-30.4 23.1-29.3h-17.1l-19.9 26.2v-26.2h-14.5v59.7h14.5v-26.3zm58.7-59.7h-36.6v59.7h36.6v-11.7h-22v-13.1h19.4v-11.2h-19.4v-12.1h22z"/>
	</g>
</svg>